<?xml version="1.0" encoding="utf-8"?>
<!-- Generator: Adobe Illustrator 24.2.1, SVG Export Plug-In . SVG Version: 6.00 Build 0)  -->
<svg version="1.1" id="Capa_1" xmlns="http://www.w3.org/2000/svg" xmlns:xlink="http://www.w3.org/1999/xlink" x="0px" y="0px"
	 viewBox="0 0 1468.64 377.56" style="enable-background:new 0 0 1468.64 377.56;" xml:space="preserve">
<style type="text/css">
	.st0{fill:#BE1622;}
	.st1{fill:#F6F6F6;}
	.st2{font-family:'FranklinGothic-Heavy';}
	.st3{font-size:111px;}
</style>
<path class="st0" d="M367.71,120.85c-0.76-2.75-2.95-4.88-5.72-5.58l-18.51-4.63c-3.08-0.77-5.48-3.17-6.25-6.25l-2.22-8.9
	c-2.19-8.78-9.01-15.59-17.79-17.79l-8.89-2.22c-3.09-0.77-5.48-3.17-6.25-6.25l-2.22-8.89c-2.2-8.78-9.01-15.6-17.79-17.79
	l-8.89-2.22c-3.08-0.77-5.48-3.17-6.25-6.25l-4.63-18.51c-0.69-2.77-2.82-4.96-5.58-5.72c-2.75-0.76-5.7,0.02-7.72,2.03
	c-15.47,15.47-24.89,37.23-25.83,59.68c-0.52,12.36,1.46,24.16,5.72,34.82c-12.89-5.94-27.02-9.08-41.63-9.08
	c-26.58,0-51.56,10.35-70.35,29.14C86.66,156.69,80,201.71,96.91,238.48c-10.69-4.28-22.52-6.27-34.91-5.75
	c-22.45,0.94-44.2,10.35-59.68,25.83c-2.02,2.02-2.8,4.97-2.03,7.72c0.76,2.75,2.95,4.88,5.72,5.58l18.51,4.63
	c3.08,0.77,5.48,3.17,6.25,6.25l2.22,8.9c2.19,8.78,9.01,15.59,17.79,17.79l8.89,2.22c3.09,0.77,5.48,3.17,6.25,6.25l2.22,8.89
	c2.2,8.78,9.01,15.6,17.79,17.79l8.89,2.22c3.09,0.77,5.48,3.17,6.25,6.25l4.63,18.51c0.69,2.77,2.82,4.96,5.58,5.72
	c0.7,0.19,1.41,0.29,2.12,0.29c2.07,0,4.1-0.82,5.61-2.32c15.47-15.47,24.89-37.23,25.83-59.68c0.45-10.84-1.02-21.25-4.26-30.84
	c14.2,7.56,30.13,11.58,46.67,11.58c26.58,0,51.56-10.35,70.35-29.14c18.79-18.79,29.14-43.78,29.14-70.35
	c0-16.54-4.01-32.46-11.56-46.65c8.45,2.85,17.53,4.33,26.98,4.33c1.27,0,2.55-0.03,3.84-0.08c22.45-0.94,44.21-10.35,59.68-25.83
	C367.7,126.55,368.47,123.6,367.71,120.85L367.71,120.85z M200.82,114.3c-6.5,0.7-12.91,2.16-19.06,4.4
	c-20.95,7.63-35.89,23.17-42.05,43.7c-6.25,20.15,1.6,41.66,18.67,51.15c0.03,0.02,0.06,0.04,0.1,0.05
	c11.76,6.27,20.27,2.51,25.35-1.75c2.14-1.8,4.03-3.97,5.74-6.32c5.63,4.35,6.48,8.08,3.33,14.01
	c-6.49,11.63-22.08,17.08-36.33,12.66c-16.66-5-29.26-17.16-35.49-34.26c-6.76-18.57-5.14-39.96,4.07-57.16
	c0.96-1.06,1.95-2.11,2.97-3.13c16.3-16.31,37.72-24.46,59.14-24.46C191.79,113.2,196.33,113.57,200.82,114.3L200.82,114.3z
	 M104.76,183.23c0.7,6.49,2.16,12.91,4.4,19.06c7.63,20.95,23.17,35.89,43.71,42.05c20.15,6.25,41.66-1.6,51.15-18.67
	c0.02-0.03,0.04-0.06,0.05-0.1c6.27-11.76,2.51-20.27-1.75-25.35c-1.76-2.1-3.87-3.95-6.16-5.62c0.15-0.28,0.3-0.56,0.45-0.84
	c0.42-0.79,0.84-1.57,1.28-2.36c0.15-0.28,0.61-1.13,2.52-1.59c3.33-0.8,8.34,0.31,11.72,2.6c7.57,5.86,11.92,15.36,11.96,26.11
	c-0.99,20.37-16.27,38.69-38.08,45.64c-18.28,5.13-38.16,3-55.32-5.78c-0.86-0.8-1.72-1.61-2.56-2.44
	C108.35,236.18,100.57,208.91,104.76,183.23L104.76,183.23z M117.24,352.29l-0.77-3.1c-2.19-8.78-9.01-15.6-17.79-17.79l-8.89-2.22
	c-3.08-0.77-5.48-3.17-6.25-6.25l-2.22-8.89c-2.2-8.78-9.01-15.6-17.79-17.79l-8.89-2.22c-3.08-0.77-5.48-3.17-6.25-6.25l-2.22-8.9
	c-2.19-8.78-9.01-15.59-17.79-17.79l-3.1-0.78c27.02-17.38,64.13-15.63,85.87,6.11C132.87,288.17,134.62,325.28,117.24,352.29
	L117.24,352.29z M173.42,279.25c5.43-0.46,10.83-1.42,16.11-2.92c0.07-0.02,0.13-0.04,0.2-0.06c26.96-8.55,45.85-31.59,47.02-57.33
	c0-0.1,0.01-0.19,0.01-0.29c0-14.86-6.22-28.14-17.06-36.43c-0.08-0.06-0.16-0.12-0.24-0.18c-6.43-4.45-15.07-6.25-22.02-4.58
	c-4.86,1.17-8.56,3.9-10.71,7.88c-0.43,0.79-0.86,1.59-1.3,2.4c-0.05,0.09-0.1,0.18-0.15,0.27c-0.36-0.19-0.72-0.39-1.08-0.58
	c-0.79-0.42-1.57-0.84-2.36-1.28c-0.28-0.15-1.13-0.61-1.59-2.52c-0.8-3.33,0.31-8.34,2.6-11.72c5.86-7.57,15.36-11.92,26.12-11.96
	c20.37,0.99,38.69,16.27,45.64,38.08c5.13,18.28,3,38.16-5.78,55.33c-0.8,0.86-1.61,1.72-2.44,2.55
	C226.57,275.77,199.18,283.54,173.42,279.25L173.42,279.25z M269.73,210.79c-0.46-5.49-1.43-10.94-2.94-16.28
	c-0.02-0.07-0.04-0.13-0.06-0.2c-8.55-26.96-31.59-45.85-57.33-47.02c-0.1,0-0.19-0.01-0.29-0.01c-14.86,0-28.14,6.22-36.43,17.06
	c-0.06,0.08-0.12,0.16-0.18,0.24c-4.45,6.43-6.25,15.07-4.58,22.02c1.17,4.86,3.9,8.56,7.88,10.71c0.79,0.43,1.59,0.86,2.4,1.3
	c0.16,0.09,0.32,0.17,0.48,0.26c-4.43,5.84-8.18,6.75-14.19,3.56c-11.63-6.5-17.08-22.08-12.65-36.33
	c5-16.66,17.16-29.26,34.26-35.49c18.57-6.76,39.96-5.14,57.16,4.06c1.06,0.96,2.11,1.95,3.13,2.97c15.8,15.8,24.5,36.8,24.5,59.14
	C270.89,201.54,270.5,206.21,269.73,210.79L269.73,210.79z M302.48,138.56c-17.03,0-33.65-5.91-45.61-17.87
	c-21.74-21.74-23.49-58.85-6.11-85.87l0.77,3.1c2.2,8.78,9.01,15.6,17.79,17.79l8.89,2.22c3.08,0.77,5.48,3.17,6.25,6.25l2.22,8.89
	c2.2,8.78,9.01,15.6,17.79,17.79l8.89,2.22c3.08,0.77,5.48,3.17,6.25,6.25l2.22,8.9c2.19,8.78,9.01,15.59,17.79,17.79l3.1,0.78
	C330.59,134.61,316.4,138.56,302.48,138.56z"/>
<text transform="matrix(1 0 0 1 309.6693 265.3071)" class="st1 st2 st3">PLAN B CANDY STORE</text>
<text transform="matrix(1 0 0 1 328.2499 251.5773)" class="st2 st3">PLAN B CANDY STORE</text>
</svg>
